<?xml version="1.0" standalone="no"?>
<!DOCTYPE svg PUBLIC "-//W3C//DTD SVG 20010904//EN"
 "http://www.w3.org/TR/2001/REC-SVG-20010904/DTD/svg10.dtd">
<svg version="1.0" xmlns="http://www.w3.org/2000/svg"
 width="195.000000pt" height="352.000000pt" viewBox="0 0 195.000000 352.000000"
 preserveAspectRatio="xMidYMid meet">

<g transform="translate(0.000000,352.000000) scale(0.100000,-0.100000)"
fill="#000000" stroke="none">
<path d="M852 3469 c-331 -55 -625 -328 -751 -698 -68 -199 -65 -151 -68 -969
-3 -634 -2 -756 12 -832 64 -373 286 -700 570 -840 127 -62 219 -84 360 -84
132 0 221 19 339 73 250 113 463 377 554 686 57 193 57 193 57 955 0 691 0
707 -22 816 -39 190 -95 330 -190 473 -207 311 -540 473 -861 420z m279 -64
c383 -81 680 -455 738 -930 15 -122 15 -1308 0 -1430 -34 -276 -145 -517 -319
-693 -427 -428 -1058 -296 -1347 283 -71 141 -105 262 -122 434 -15 140 -14
1259 0 1393 21 198 92 398 196 555 46 71 169 201 234 248 73 54 198 113 285
134 97 24 237 26 335 6z"/>
<path d="M724 3019 c-4 -7 -3 -14 4 -17 42 -14 42 -12 42 -488 0 -295 -4 -462
-10 -475 -6 -10 -18 -19 -26 -19 -9 0 -14 -6 -12 -12 6 -16 248 -24 248 -9 0
6 -11 21 -25 35 -24 24 -25 30 -25 153 0 70 5 145 11 166 14 52 72 105 155
144 38 17 108 49 155 71 146 67 201 135 202 252 1 95 -46 151 -157 186 -69 23
-549 33 -562 13z m447 -30 c78 -27 113 -84 107 -179 -5 -93 -34 -133 -157
-215 -117 -78 -142 -99 -175 -149 l-26 -39 0 270 c0 282 1 287 45 311 26 15
163 15 206 1z"/>
<path d="M672 1813 c170 -2 446 -2 615 0 170 1 31 2 -307 2 -338 0 -477 -1
-308 -2z"/>
<path d="M526 1515 c-3 -8 -1 -15 4 -15 5 0 16 -7 24 -16 14 -14 16 -71 16
-480 0 -453 0 -464 -20 -476 -11 -7 -20 -18 -20 -25 0 -10 30 -13 120 -13 90
0 120 3 120 13 0 7 -9 18 -20 25 -18 11 -20 23 -20 147 0 92 4 146 14 168 31
75 111 127 304 196 59 21 115 42 125 46 16 7 17 -10 17 -260 0 -268 -4 -305
-36 -305 -9 0 -14 -6 -12 -12 6 -16 248 -24 248 -9 0 6 -11 21 -25 35 l-25 25
0 451 0 451 25 25 c14 14 25 29 25 34 0 15 -237 13 -246 -2 -4 -6 -2 -14 4
-16 35 -11 42 -33 42 -139 0 -164 -23 -195 -217 -291 -118 -58 -191 -113 -224
-167 -19 -30 -19 -26 -19 272 0 292 1 303 20 313 11 6 20 17 20 25 0 22 -235
22 -244 0z"/>
</g>
</svg>
